<svg width="42" height="52" viewBox="0 0 42 52" fill="none" xmlns="http://www.w3.org/2000/svg">
<path d="M18 16.5C17.3 16.5 16.7083 16.2583 16.225 15.775C15.7417 15.2917 15.5 14.7 15.5 14C15.5 13.3 15.7417 12.7083 16.225 12.225C16.7083 11.7417 17.3 11.5 18 11.5C18.7 11.5 19.2917 11.7417 19.775 12.225C20.2583 12.7083 20.5 13.3 20.5 14C20.5 14.7 20.2583 15.2917 19.775 15.775C19.2917 16.2583 18.7 16.5 18 16.5ZM14 22C13.45 22 12.9792 21.8042 12.5875 21.4125C12.1958 21.0208 12 20.55 12 20V6C12 5.45 12.1958 4.97917 12.5875 4.5875C12.9792 4.19583 13.45 4 14 4H15V2H17V4H25V2H27V4H28C28.55 4 29.0208 4.19583 29.4125 4.5875C29.8042 4.97917 30 5.45 30 6V20C30 20.55 29.8042 21.0208 29.4125 21.4125C29.0208 21.8042 28.55 22 28 22H14ZM14 20H28V10H14V20Z" fill="#1D1B20"/>
<path d="M4.20703 34.7637L1.77539 42H0.0703125L3.25781 33.4688H4.34766L4.20703 34.7637ZM6.24023 42L3.79688 34.7637L3.65039 33.4688H4.74609L7.95117 42H6.24023ZM6.12891 38.8301V40.1016H1.55273V38.8301H6.12891ZM12.7441 35.6602H14.1504V41.8066C14.1504 42.3809 14.0254 42.8672 13.7754 43.2656C13.5293 43.668 13.1836 43.9727 12.7383 44.1797C12.293 44.3906 11.7754 44.4961 11.1855 44.4961C10.9316 44.4961 10.6562 44.4609 10.3594 44.3906C10.0664 44.3203 9.7832 44.209 9.50977 44.0566C9.24023 43.9082 9.01562 43.7148 8.83594 43.4766L9.5332 42.5625C9.74414 42.8086 9.98242 42.9941 10.248 43.1191C10.5137 43.248 10.8008 43.3125 11.1094 43.3125C11.4219 43.3125 11.6875 43.2539 11.9062 43.1367C12.1289 43.0234 12.2988 42.8555 12.416 42.6328C12.5371 42.4141 12.5977 42.1445 12.5977 41.8242V37.1074L12.7441 35.6602ZM8.46094 38.9062V38.7832C8.46094 38.2988 8.51953 37.8594 8.63672 37.4648C8.75391 37.0664 8.92188 36.7246 9.14062 36.4395C9.36328 36.1543 9.63086 35.9336 9.94336 35.7773C10.2598 35.6211 10.6152 35.543 11.0098 35.543C11.4277 35.543 11.7793 35.6191 12.0645 35.7715C12.3535 35.9238 12.5918 36.1406 12.7793 36.4219C12.9707 36.7031 13.1191 37.0371 13.2246 37.4238C13.334 37.8066 13.418 38.2285 13.4766 38.6895V39.0234C13.4219 39.4727 13.334 39.8848 13.2129 40.2598C13.0957 40.6348 12.9395 40.9629 12.7441 41.2441C12.5488 41.5215 12.3066 41.7363 12.0176 41.8887C11.7285 42.041 11.3887 42.1172 10.998 42.1172C10.6074 42.1172 10.2559 42.0371 9.94336 41.877C9.63086 41.7168 9.36328 41.4922 9.14062 41.2031C8.92188 40.9141 8.75391 40.5742 8.63672 40.1836C8.51953 39.793 8.46094 39.3672 8.46094 38.9062ZM10.0078 38.7832V38.9062C10.0078 39.1797 10.0352 39.4355 10.0898 39.6738C10.1445 39.9121 10.2285 40.123 10.3418 40.3066C10.4551 40.4863 10.5977 40.627 10.7695 40.7285C10.9414 40.8301 11.1465 40.8809 11.3848 40.8809C11.7051 40.8809 11.9668 40.8145 12.1699 40.6816C12.377 40.5449 12.5332 40.3594 12.6387 40.125C12.748 39.8867 12.8184 39.6191 12.8496 39.3223V38.4023C12.8301 38.168 12.7871 37.9512 12.7207 37.752C12.6582 37.5527 12.5703 37.3809 12.457 37.2363C12.3438 37.0918 12.1992 36.9785 12.0234 36.8965C11.8477 36.8145 11.6387 36.7734 11.3965 36.7734C11.1621 36.7734 10.957 36.8262 10.7812 36.9316C10.6055 37.0332 10.4609 37.1758 10.3477 37.3594C10.2344 37.543 10.1484 37.7559 10.0898 37.998C10.0352 38.2402 10.0078 38.502 10.0078 38.7832ZM18.3926 42.1172C17.9121 42.1172 17.4805 42.0391 17.0977 41.8828C16.7148 41.7266 16.3887 41.5098 16.1191 41.2324C15.8535 40.9512 15.6484 40.625 15.5039 40.2539C15.3633 39.8789 15.293 39.4766 15.293 39.0469V38.8125C15.293 38.3242 15.3633 37.8809 15.5039 37.4824C15.6445 37.0801 15.8438 36.7344 16.1016 36.4453C16.3594 36.1562 16.668 35.9336 17.0273 35.7773C17.3867 35.6211 17.7832 35.543 18.2168 35.543C18.666 35.543 19.0625 35.6191 19.4062 35.7715C19.75 35.9199 20.0371 36.1309 20.2676 36.4043C20.498 36.6777 20.6719 37.0059 20.7891 37.3887C20.9062 37.7676 20.9648 38.1875 20.9648 38.6484V39.2988H15.9961V38.2324H19.4414V38.1152C19.4336 37.8691 19.3867 37.6445 19.3008 37.4414C19.2148 37.2344 19.082 37.0703 18.9023 36.9492C18.7227 36.8242 18.4902 36.7617 18.2051 36.7617C17.9746 36.7617 17.7734 36.8125 17.6016 36.9141C17.4336 37.0117 17.293 37.1523 17.1797 37.3359C17.0703 37.5156 16.9883 37.7305 16.9336 37.9805C16.8789 38.2305 16.8516 38.5078 16.8516 38.8125V39.0469C16.8516 39.3125 16.8867 39.5586 16.957 39.7852C17.0312 40.0117 17.1387 40.209 17.2793 40.377C17.4238 40.541 17.5957 40.6699 17.7949 40.7637C17.998 40.8535 18.2285 40.8984 18.4863 40.8984C18.8105 40.8984 19.1035 40.8359 19.3652 40.7109C19.6309 40.582 19.8613 40.3926 20.0566 40.1426L20.8359 40.9512C20.7031 41.1465 20.5234 41.334 20.2969 41.5137C20.0742 41.6934 19.8047 41.8398 19.4883 41.9531C19.1719 42.0625 18.8066 42.1172 18.3926 42.1172ZM23.5195 37.0137V42H21.9727V35.6602H23.4258L23.5195 37.0137ZM23.2734 38.6016H22.8164C22.8203 38.1406 22.8828 37.7227 23.0039 37.3477C23.125 36.9727 23.2949 36.6504 23.5137 36.3809C23.7363 36.1113 24 35.9043 24.3047 35.7598C24.6094 35.6152 24.9492 35.543 25.3242 35.543C25.6289 35.543 25.9043 35.5859 26.1504 35.6719C26.3965 35.7578 26.6074 35.8945 26.7832 36.082C26.9629 36.2695 27.0996 36.5156 27.1934 36.8203C27.291 37.1211 27.3398 37.4922 27.3398 37.9336V42H25.7812V37.9219C25.7812 37.6328 25.7383 37.4043 25.6523 37.2363C25.5703 37.0684 25.4492 36.9492 25.2891 36.8789C25.1328 36.8086 24.9395 36.7734 24.709 36.7734C24.4707 36.7734 24.2617 36.8223 24.082 36.9199C23.9062 37.0137 23.7578 37.1445 23.6367 37.3125C23.5195 37.4805 23.4297 37.6738 23.3672 37.8926C23.3047 38.1113 23.2734 38.3477 23.2734 38.6016ZM32.5078 40.6523V33H34.0664V42H32.6602L32.5078 40.6523ZM28.4355 38.9062V38.7832C28.4355 38.2988 28.4902 37.8594 28.5996 37.4648C28.7129 37.0664 28.877 36.7246 29.0918 36.4395C29.3066 36.1543 29.5664 35.9336 29.8711 35.7773C30.1797 35.6211 30.5293 35.543 30.9199 35.543C31.2988 35.543 31.6289 35.6191 31.9102 35.7715C32.1953 35.9238 32.4375 36.1406 32.6367 36.4219C32.8398 36.7031 33.002 37.0371 33.123 37.4238C33.2441 37.8066 33.332 38.2285 33.3867 38.6895V39.0234C33.332 39.4727 33.2441 39.8848 33.123 40.2598C33.002 40.6348 32.8398 40.9629 32.6367 41.2441C32.4375 41.5215 32.1953 41.7363 31.9102 41.8887C31.625 42.041 31.291 42.1172 30.9082 42.1172C30.5215 42.1172 30.1738 42.0371 29.8652 41.877C29.5605 41.7168 29.3008 41.4922 29.0859 41.2031C28.875 40.9141 28.7129 40.5742 28.5996 40.1836C28.4902 39.793 28.4355 39.3672 28.4355 38.9062ZM29.9883 38.7832V38.9062C29.9883 39.1797 30.0117 39.4355 30.0586 39.6738C30.1055 39.9121 30.1816 40.123 30.2871 40.3066C30.3926 40.4863 30.5273 40.627 30.6914 40.7285C30.8594 40.8301 31.0625 40.8809 31.3008 40.8809C31.6055 40.8809 31.8555 40.8145 32.0508 40.6816C32.25 40.5449 32.4043 40.3594 32.5137 40.125C32.623 39.8867 32.6934 39.6191 32.7246 39.3223V38.4023C32.709 38.168 32.668 37.9512 32.6016 37.752C32.5391 37.5527 32.4492 37.3809 32.332 37.2363C32.2188 37.0918 32.0781 36.9785 31.9102 36.8965C31.7422 36.8145 31.543 36.7734 31.3125 36.7734C31.0742 36.7734 30.8711 36.8262 30.7031 36.9316C30.5352 37.0332 30.3984 37.1758 30.293 37.3594C30.1875 37.543 30.1094 37.7559 30.0586 37.998C30.0117 38.2402 29.9883 38.502 29.9883 38.7832ZM38.959 40.6523V37.7285C38.959 37.5137 38.9219 37.3281 38.8477 37.1719C38.7734 37.0156 38.6602 36.8945 38.5078 36.8086C38.3555 36.7227 38.1621 36.6797 37.9277 36.6797C37.7207 36.6797 37.5391 36.7148 37.3828 36.7852C37.2305 36.8555 37.1133 36.9551 37.0312 37.084C36.9492 37.209 36.9082 37.3535 36.9082 37.5176H35.3555C35.3555 37.2559 35.418 37.0078 35.543 36.7734C35.668 36.5352 35.8457 36.3242 36.0762 36.1406C36.3105 35.9531 36.5898 35.8066 36.9141 35.7012C37.2422 35.5957 37.6094 35.543 38.0156 35.543C38.4961 35.543 38.9238 35.625 39.2988 35.7891C39.6777 35.9492 39.9746 36.1914 40.1895 36.5156C40.4082 36.8398 40.5176 37.248 40.5176 37.7402V40.5059C40.5176 40.8223 40.5371 41.0938 40.5762 41.3203C40.6191 41.543 40.6816 41.7363 40.7637 41.9004V42H39.1875C39.1133 41.8398 39.0566 41.6367 39.0176 41.3906C38.9785 41.1406 38.959 40.8945 38.959 40.6523ZM39.1758 38.1387L39.1875 39.0586H38.209C37.9668 39.0586 37.7539 39.084 37.5703 39.1348C37.3867 39.1816 37.2363 39.252 37.1191 39.3457C37.002 39.4355 36.9141 39.5449 36.8555 39.6738C36.7969 39.7988 36.7676 39.9414 36.7676 40.1016C36.7676 40.2578 36.8027 40.3984 36.873 40.5234C36.9473 40.6484 37.0527 40.748 37.1895 40.8223C37.3301 40.8926 37.4941 40.9277 37.6816 40.9277C37.9551 40.9277 38.1934 40.873 38.3965 40.7637C38.5996 40.6504 38.7578 40.5137 38.8711 40.3535C38.9844 40.1934 39.0449 40.041 39.0527 39.8965L39.498 40.5645C39.4434 40.7246 39.3613 40.8945 39.252 41.0742C39.1426 41.2539 39.002 41.4219 38.8301 41.5781C38.6582 41.7344 38.4512 41.8633 38.209 41.9648C37.9668 42.0664 37.6855 42.1172 37.3652 42.1172C36.9551 42.1172 36.5879 42.0352 36.2637 41.8711C35.9395 41.707 35.6836 41.4824 35.4961 41.1973C35.3086 40.9121 35.2148 40.5879 35.2148 40.2246C35.2148 39.8887 35.2773 39.5918 35.4023 39.334C35.5273 39.0762 35.7129 38.8594 35.959 38.6836C36.2051 38.5039 36.5098 38.3691 36.873 38.2793C37.2402 38.1855 37.6602 38.1387 38.1328 38.1387H39.1758Z" fill="#090909"/>
</svg>
