<svg width="21" height="20" viewBox="0 0 21 20" fill="none" xmlns="http://www.w3.org/2000/svg">
<path d="M14.05 14.7L15.45 13.3L11.75 9.6V5H9.75V10.4L14.05 14.7ZM10.75 20C9.36667 20 8.06667 19.7375 6.85 19.2125C5.63333 18.6875 4.575 17.975 3.675 17.075C2.775 16.175 2.0625 15.1167 1.5375 13.9C1.0125 12.6833 0.75 11.3833 0.75 10C0.75 8.61667 1.0125 7.31667 1.5375 6.1C2.0625 4.88333 2.775 3.825 3.675 2.925C4.575 2.025 5.63333 1.3125 6.85 0.7875C8.06667 0.2625 9.36667 0 10.75 0C12.1333 0 13.4333 0.2625 14.65 0.7875C15.8667 1.3125 16.925 2.025 17.825 2.925C18.725 3.825 19.4375 4.88333 19.9625 6.1C20.4875 7.31667 20.75 8.61667 20.75 10C20.75 11.3833 20.4875 12.6833 19.9625 13.9C19.4375 15.1167 18.725 16.175 17.825 17.075C16.925 17.975 15.8667 18.6875 14.65 19.2125C13.4333 19.7375 12.1333 20 10.75 20ZM10.75 18C12.9667 18 14.8542 17.2208 16.4125 15.6625C17.9708 14.1042 18.75 12.2167 18.75 10C18.75 7.78333 17.9708 5.89583 16.4125 4.3375C14.8542 2.77917 12.9667 2 10.75 2C8.53333 2 6.64583 2.77917 5.0875 4.3375C3.52917 5.89583 2.75 7.78333 2.75 10C2.75 12.2167 3.52917 14.1042 5.0875 15.6625C6.64583 17.2208 8.53333 18 10.75 18Z" fill="white"/>
</svg>
