<svg width="37" height="52" viewBox="0 0 37 52" fill="none" xmlns="http://www.w3.org/2000/svg">
<path d="M10.5 19V17H12.5V10C12.5 8.61667 12.9167 7.39167 13.75 6.325C14.5833 5.24167 15.6667 4.53333 17 4.2V3.5C17 3.08333 17.1417 2.73333 17.425 2.45C17.725 2.15 18.0833 2 18.5 2C18.9167 2 19.2667 2.15 19.55 2.45C19.85 2.73333 20 3.08333 20 3.5V4.2C21.3333 4.53333 22.4167 5.24167 23.25 6.325C24.0833 7.39167 24.5 8.61667 24.5 10V17H26.5V19H10.5ZM18.5 22C17.95 22 17.475 21.8083 17.075 21.425C16.6917 21.025 16.5 20.55 16.5 20H20.5C20.5 20.55 20.3 21.025 19.9 21.425C19.5167 21.8083 19.05 22 18.5 22ZM14.5 17H22.5V10C22.5 8.9 22.1083 7.95833 21.325 7.175C20.5417 6.39167 19.6 6 18.5 6C17.4 6 16.4583 6.39167 15.675 7.175C14.8917 7.95833 14.5 8.9 14.5 10V17Z" fill="#1D1B20"/>
<path d="M4.70703 34.7637L2.27539 42H0.570312L3.75781 33.4688H4.84766L4.70703 34.7637ZM6.74023 42L4.29688 34.7637L4.15039 33.4688H5.24609L8.45117 42H6.74023ZM6.62891 38.8301V40.1016H2.05273V38.8301H6.62891ZM11.0234 40.8281L12.5 35.6602H14.1172L11.9434 42H10.959L11.0234 40.8281ZM9.94531 35.6602L11.4395 40.8398L11.4922 42H10.502L8.32227 35.6602H9.94531ZM16.5723 35.6602V42H15.0195V35.6602H16.5723ZM14.9141 34.002C14.9141 33.7715 14.9922 33.5801 15.1484 33.4277C15.3086 33.2754 15.5234 33.1992 15.793 33.1992C16.0625 33.1992 16.2754 33.2754 16.4316 33.4277C16.5918 33.5801 16.6719 33.7715 16.6719 34.002C16.6719 34.2285 16.5918 34.418 16.4316 34.5703C16.2754 34.7227 16.0625 34.7988 15.793 34.7988C15.5234 34.7988 15.3086 34.7227 15.1484 34.5703C14.9922 34.418 14.9141 34.2285 14.9141 34.002ZM21.5352 40.2656C21.5352 40.1328 21.5 40.0137 21.4297 39.9082C21.3594 39.8027 21.2266 39.707 21.0312 39.6211C20.8398 39.5312 20.5586 39.4473 20.1875 39.3691C19.8594 39.2988 19.5566 39.2109 19.2793 39.1055C19.002 39 18.7637 38.873 18.5645 38.7246C18.3652 38.5723 18.209 38.3945 18.0957 38.1914C17.9863 37.9844 17.9316 37.7461 17.9316 37.4766C17.9316 37.2148 17.9883 36.9688 18.1016 36.7383C18.2148 36.5039 18.3789 36.2988 18.5938 36.123C18.8086 35.9434 19.0703 35.8027 19.3789 35.7012C19.6875 35.5957 20.0352 35.543 20.4219 35.543C20.9609 35.543 21.4238 35.6309 21.8105 35.8066C22.2012 35.9824 22.5 36.2246 22.707 36.5332C22.9141 36.8379 23.0176 37.1816 23.0176 37.5645H21.4707C21.4707 37.3965 21.4316 37.2441 21.3535 37.1074C21.2793 36.9707 21.1641 36.8613 21.0078 36.7793C20.8516 36.6934 20.6543 36.6504 20.416 36.6504C20.2012 36.6504 20.0195 36.6855 19.8711 36.7559C19.7266 36.8262 19.6172 36.918 19.543 37.0312C19.4688 37.1445 19.4316 37.2695 19.4316 37.4062C19.4316 37.5078 19.4512 37.5996 19.4902 37.6816C19.5332 37.7598 19.6016 37.832 19.6953 37.8984C19.7891 37.9648 19.916 38.0254 20.0762 38.0801C20.2402 38.1348 20.4414 38.1875 20.6797 38.2383C21.1523 38.332 21.5645 38.457 21.916 38.6133C22.2715 38.7656 22.5488 38.9688 22.748 39.2227C22.9473 39.4766 23.0469 39.8008 23.0469 40.1953C23.0469 40.4766 22.9863 40.7344 22.8652 40.9688C22.7441 41.1992 22.5684 41.4004 22.3379 41.5723C22.1074 41.7441 21.832 41.8789 21.5117 41.9766C21.1914 42.0703 20.8301 42.1172 20.4277 42.1172C19.8457 42.1172 19.3535 42.0137 18.9512 41.8066C18.5488 41.5957 18.2441 41.3301 18.0371 41.0098C17.8301 40.6855 17.7266 40.3496 17.7266 40.002H19.209C19.2207 40.248 19.2871 40.4453 19.4082 40.5938C19.5293 40.7422 19.6816 40.8496 19.8652 40.916C20.0527 40.9785 20.25 41.0098 20.457 41.0098C20.6914 41.0098 20.8887 40.9785 21.0488 40.916C21.209 40.8496 21.3301 40.7617 21.4121 40.6523C21.4941 40.5391 21.5352 40.4102 21.5352 40.2656ZM23.9492 38.8945V38.7715C23.9492 38.3066 24.0156 37.8789 24.1484 37.4883C24.2812 37.0938 24.4746 36.752 24.7285 36.4629C24.9824 36.1738 25.293 35.9492 25.6602 35.7891C26.0273 35.625 26.4453 35.543 26.9141 35.543C27.3906 35.543 27.8125 35.625 28.1797 35.7891C28.5508 35.9492 28.8633 36.1738 29.1172 36.4629C29.3711 36.752 29.5645 37.0938 29.6973 37.4883C29.8301 37.8789 29.8965 38.3066 29.8965 38.7715V38.8945C29.8965 39.3555 29.8301 39.7832 29.6973 40.1777C29.5645 40.5684 29.3711 40.9102 29.1172 41.2031C28.8633 41.4922 28.5527 41.7168 28.1855 41.877C27.8184 42.0371 27.3984 42.1172 26.9258 42.1172C26.457 42.1172 26.0371 42.0371 25.666 41.877C25.2949 41.7168 24.9824 41.4922 24.7285 41.2031C24.4746 40.9102 24.2812 40.5684 24.1484 40.1777C24.0156 39.7832 23.9492 39.3555 23.9492 38.8945ZM25.4961 38.7715V38.8945C25.4961 39.1719 25.5234 39.4316 25.5781 39.6738C25.6328 39.916 25.7168 40.1289 25.8301 40.3125C25.9434 40.4961 26.0898 40.6406 26.2695 40.7461C26.4531 40.8477 26.6719 40.8984 26.9258 40.8984C27.1758 40.8984 27.3906 40.8477 27.5703 40.7461C27.75 40.6406 27.8965 40.4961 28.0098 40.3125C28.127 40.1289 28.2129 39.916 28.2676 39.6738C28.3223 39.4316 28.3496 39.1719 28.3496 38.8945V38.7715C28.3496 38.498 28.3223 38.2422 28.2676 38.0039C28.2129 37.7617 28.127 37.5488 28.0098 37.3652C27.8965 37.1777 27.748 37.0312 27.5645 36.9258C27.3848 36.8164 27.168 36.7617 26.9141 36.7617C26.6641 36.7617 26.4492 36.8164 26.2695 36.9258C26.0898 37.0312 25.9434 37.1777 25.8301 37.3652C25.7168 37.5488 25.6328 37.7617 25.5781 38.0039C25.5234 38.2422 25.4961 38.498 25.4961 38.7715ZM34.5078 40.2656C34.5078 40.1328 34.4727 40.0137 34.4023 39.9082C34.332 39.8027 34.1992 39.707 34.0039 39.6211C33.8125 39.5312 33.5312 39.4473 33.1602 39.3691C32.832 39.2988 32.5293 39.2109 32.252 39.1055C31.9746 39 31.7363 38.873 31.5371 38.7246C31.3379 38.5723 31.1816 38.3945 31.0684 38.1914C30.959 37.9844 30.9043 37.7461 30.9043 37.4766C30.9043 37.2148 30.9609 36.9688 31.0742 36.7383C31.1875 36.5039 31.3516 36.2988 31.5664 36.123C31.7812 35.9434 32.043 35.8027 32.3516 35.7012C32.6602 35.5957 33.0078 35.543 33.3945 35.543C33.9336 35.543 34.3965 35.6309 34.7832 35.8066C35.1738 35.9824 35.4727 36.2246 35.6797 36.5332C35.8867 36.8379 35.9902 37.1816 35.9902 37.5645H34.4434C34.4434 37.3965 34.4043 37.2441 34.3262 37.1074C34.252 36.9707 34.1367 36.8613 33.9805 36.7793C33.8242 36.6934 33.627 36.6504 33.3887 36.6504C33.1738 36.6504 32.9922 36.6855 32.8438 36.7559C32.6992 36.8262 32.5898 36.918 32.5156 37.0312C32.4414 37.1445 32.4043 37.2695 32.4043 37.4062C32.4043 37.5078 32.4238 37.5996 32.4629 37.6816C32.5059 37.7598 32.5742 37.832 32.668 37.8984C32.7617 37.9648 32.8887 38.0254 33.0488 38.0801C33.2129 38.1348 33.4141 38.1875 33.6523 38.2383C34.125 38.332 34.5371 38.457 34.8887 38.6133C35.2441 38.7656 35.5215 38.9688 35.7207 39.2227C35.9199 39.4766 36.0195 39.8008 36.0195 40.1953C36.0195 40.4766 35.959 40.7344 35.8379 40.9688C35.7168 41.1992 35.541 41.4004 35.3105 41.5723C35.0801 41.7441 34.8047 41.8789 34.4844 41.9766C34.1641 42.0703 33.8027 42.1172 33.4004 42.1172C32.8184 42.1172 32.3262 42.0137 31.9238 41.8066C31.5215 41.5957 31.2168 41.3301 31.0098 41.0098C30.8027 40.6855 30.6992 40.3496 30.6992 40.002H32.1816C32.1934 40.248 32.2598 40.4453 32.3809 40.5938C32.502 40.7422 32.6543 40.8496 32.8379 40.916C33.0254 40.9785 33.2227 41.0098 33.4297 41.0098C33.6641 41.0098 33.8613 40.9785 34.0215 40.916C34.1816 40.8496 34.3027 40.7617 34.3848 40.6523C34.4668 40.5391 34.5078 40.4102 34.5078 40.2656Z" fill="#090909"/>
</svg>
