<svg width="24" height="25" viewBox="0 0 24 25" fill="none" xmlns="http://www.w3.org/2000/svg">
<path d="M4 19.8428V17.8428H6V10.8428C6 9.45944 6.41667 8.23444 7.25 7.16777C8.08333 6.08444 9.16667 5.37611 10.5 5.04277V4.34277C10.5 3.92611 10.6417 3.57611 10.925 3.29277C11.225 2.99277 11.5833 2.84277 12 2.84277C12.4167 2.84277 12.7667 2.99277 13.05 3.29277C13.35 3.57611 13.5 3.92611 13.5 4.34277V5.04277C14.8333 5.37611 15.9167 6.08444 16.75 7.16777C17.5833 8.23444 18 9.45944 18 10.8428V17.8428H20V19.8428H4ZM12 22.8428C11.45 22.8428 10.975 22.6511 10.575 22.2678C10.1917 21.8678 10 21.3928 10 20.8428H14C14 21.3928 13.8 21.8678 13.4 22.2678C13.0167 22.6511 12.55 22.8428 12 22.8428ZM8 17.8428H16V10.8428C16 9.74277 15.6083 8.80111 14.825 8.01777C14.0417 7.23444 13.1 6.84277 12 6.84277C10.9 6.84277 9.95833 7.23444 9.175 8.01777C8.39167 8.80111 8 9.74277 8 10.8428V17.8428Z" fill="#1D1B20"/>
</svg>
