<svg width="52" height="52" viewBox="0 0 52 52" fill="none" xmlns="http://www.w3.org/2000/svg">
<path d="M18 20C17.45 20 16.9792 19.8042 16.5875 19.4125C16.1958 19.0208 16 18.55 16 18V6C16 5.45 16.1958 4.97917 16.5875 4.5875C16.9792 4.19583 17.45 4 18 4H34C34.55 4 35.0208 4.19583 35.4125 4.5875C35.8042 4.97917 36 5.45 36 6V18C36 18.55 35.8042 19.0208 35.4125 19.4125C35.0208 19.8042 34.55 20 34 20H18ZM26 13L18 8V18H34V8L26 13ZM26 11L34 6H18L26 11ZM18 8V6V18V8Z" fill="#1D1B20"/>
<path d="M1.51758 33.4688H2.91211L5.24414 39.8906L7.57031 33.4688H8.9707L5.80078 42H4.68164L1.51758 33.4688ZM0.814453 33.4688H2.17969L2.42578 39.3691V42H0.814453V33.4688ZM8.30273 33.4688H9.67383V42H8.0625V39.3691L8.30273 33.4688ZM14.0449 42.1172C13.5645 42.1172 13.1328 42.0391 12.75 41.8828C12.3672 41.7266 12.041 41.5098 11.7715 41.2324C11.5059 40.9512 11.3008 40.625 11.1562 40.2539C11.0156 39.8789 10.9453 39.4766 10.9453 39.0469V38.8125C10.9453 38.3242 11.0156 37.8809 11.1562 37.4824C11.2969 37.0801 11.4961 36.7344 11.7539 36.4453C12.0117 36.1562 12.3203 35.9336 12.6797 35.7773C13.0391 35.6211 13.4355 35.543 13.8691 35.543C14.3184 35.543 14.7148 35.6191 15.0586 35.7715C15.4023 35.9199 15.6895 36.1309 15.9199 36.4043C16.1504 36.6777 16.3242 37.0059 16.4414 37.3887C16.5586 37.7676 16.6172 38.1875 16.6172 38.6484V39.2988H11.6484V38.2324H15.0938V38.1152C15.0859 37.8691 15.0391 37.6445 14.9531 37.4414C14.8672 37.2344 14.7344 37.0703 14.5547 36.9492C14.375 36.8242 14.1426 36.7617 13.8574 36.7617C13.627 36.7617 13.4258 36.8125 13.2539 36.9141C13.0859 37.0117 12.9453 37.1523 12.832 37.3359C12.7227 37.5156 12.6406 37.7305 12.5859 37.9805C12.5312 38.2305 12.5039 38.5078 12.5039 38.8125V39.0469C12.5039 39.3125 12.5391 39.5586 12.6094 39.7852C12.6836 40.0117 12.791 40.209 12.9316 40.377C13.0762 40.541 13.248 40.6699 13.4473 40.7637C13.6504 40.8535 13.8809 40.8984 14.1387 40.8984C14.4629 40.8984 14.7559 40.8359 15.0176 40.7109C15.2832 40.582 15.5137 40.3926 15.709 40.1426L16.4883 40.9512C16.3555 41.1465 16.1758 41.334 15.9492 41.5137C15.7266 41.6934 15.457 41.8398 15.1406 41.9531C14.8242 42.0625 14.459 42.1172 14.0449 42.1172ZM19.1719 37.0137V42H17.625V35.6602H19.0781L19.1719 37.0137ZM18.9258 38.6016H18.4688C18.4727 38.1406 18.5352 37.7227 18.6562 37.3477C18.7773 36.9727 18.9473 36.6504 19.166 36.3809C19.3887 36.1113 19.6523 35.9043 19.957 35.7598C20.2617 35.6152 20.6016 35.543 20.9766 35.543C21.2812 35.543 21.5566 35.5859 21.8027 35.6719C22.0488 35.7578 22.2598 35.8945 22.4355 36.082C22.6152 36.2695 22.752 36.5156 22.8457 36.8203C22.9434 37.1211 22.9922 37.4922 22.9922 37.9336V42H21.4336V37.9219C21.4336 37.6328 21.3906 37.4043 21.3047 37.2363C21.2227 37.0684 21.1016 36.9492 20.9414 36.8789C20.7852 36.8086 20.5918 36.7734 20.3613 36.7734C20.123 36.7734 19.9141 36.8223 19.7344 36.9199C19.5586 37.0137 19.4102 37.1445 19.2891 37.3125C19.1719 37.4805 19.082 37.6738 19.0195 37.8926C18.957 38.1113 18.9258 38.3477 18.9258 38.6016ZM27.8438 40.2656C27.8438 40.1328 27.8086 40.0137 27.7383 39.9082C27.668 39.8027 27.5352 39.707 27.3398 39.6211C27.1484 39.5312 26.8672 39.4473 26.4961 39.3691C26.168 39.2988 25.8652 39.2109 25.5879 39.1055C25.3105 39 25.0723 38.873 24.873 38.7246C24.6738 38.5723 24.5176 38.3945 24.4043 38.1914C24.2949 37.9844 24.2402 37.7461 24.2402 37.4766C24.2402 37.2148 24.2969 36.9688 24.4102 36.7383C24.5234 36.5039 24.6875 36.2988 24.9023 36.123C25.1172 35.9434 25.3789 35.8027 25.6875 35.7012C25.9961 35.5957 26.3438 35.543 26.7305 35.543C27.2695 35.543 27.7324 35.6309 28.1191 35.8066C28.5098 35.9824 28.8086 36.2246 29.0156 36.5332C29.2227 36.8379 29.3262 37.1816 29.3262 37.5645H27.7793C27.7793 37.3965 27.7402 37.2441 27.6621 37.1074C27.5879 36.9707 27.4727 36.8613 27.3164 36.7793C27.1602 36.6934 26.9629 36.6504 26.7246 36.6504C26.5098 36.6504 26.3281 36.6855 26.1797 36.7559C26.0352 36.8262 25.9258 36.918 25.8516 37.0312C25.7773 37.1445 25.7402 37.2695 25.7402 37.4062C25.7402 37.5078 25.7598 37.5996 25.7988 37.6816C25.8418 37.7598 25.9102 37.832 26.0039 37.8984C26.0977 37.9648 26.2246 38.0254 26.3848 38.0801C26.5488 38.1348 26.75 38.1875 26.9883 38.2383C27.4609 38.332 27.873 38.457 28.2246 38.6133C28.5801 38.7656 28.8574 38.9688 29.0566 39.2227C29.2559 39.4766 29.3555 39.8008 29.3555 40.1953C29.3555 40.4766 29.2949 40.7344 29.1738 40.9688C29.0527 41.1992 28.877 41.4004 28.6465 41.5723C28.416 41.7441 28.1406 41.8789 27.8203 41.9766C27.5 42.0703 27.1387 42.1172 26.7363 42.1172C26.1543 42.1172 25.6621 42.0137 25.2598 41.8066C24.8574 41.5957 24.5527 41.3301 24.3457 41.0098C24.1387 40.6855 24.0352 40.3496 24.0352 40.002H25.5176C25.5293 40.248 25.5957 40.4453 25.7168 40.5938C25.8379 40.7422 25.9902 40.8496 26.1738 40.916C26.3613 40.9785 26.5586 41.0098 26.7656 41.0098C27 41.0098 27.1973 40.9785 27.3574 40.916C27.5176 40.8496 27.6387 40.7617 27.7207 40.6523C27.8027 40.5391 27.8438 40.4102 27.8438 40.2656ZM34.0254 40.6523V37.7285C34.0254 37.5137 33.9883 37.3281 33.9141 37.1719C33.8398 37.0156 33.7266 36.8945 33.5742 36.8086C33.4219 36.7227 33.2285 36.6797 32.9941 36.6797C32.7871 36.6797 32.6055 36.7148 32.4492 36.7852C32.2969 36.8555 32.1797 36.9551 32.0977 37.084C32.0156 37.209 31.9746 37.3535 31.9746 37.5176H30.4219C30.4219 37.2559 30.4844 37.0078 30.6094 36.7734C30.7344 36.5352 30.9121 36.3242 31.1426 36.1406C31.377 35.9531 31.6562 35.8066 31.9805 35.7012C32.3086 35.5957 32.6758 35.543 33.082 35.543C33.5625 35.543 33.9902 35.625 34.3652 35.7891C34.7441 35.9492 35.041 36.1914 35.2559 36.5156C35.4746 36.8398 35.584 37.248 35.584 37.7402V40.5059C35.584 40.8223 35.6035 41.0938 35.6426 41.3203C35.6855 41.543 35.748 41.7363 35.8301 41.9004V42H34.2539C34.1797 41.8398 34.123 41.6367 34.084 41.3906C34.0449 41.1406 34.0254 40.8945 34.0254 40.6523ZM34.2422 38.1387L34.2539 39.0586H33.2754C33.0332 39.0586 32.8203 39.084 32.6367 39.1348C32.4531 39.1816 32.3027 39.252 32.1855 39.3457C32.0684 39.4355 31.9805 39.5449 31.9219 39.6738C31.8633 39.7988 31.834 39.9414 31.834 40.1016C31.834 40.2578 31.8691 40.3984 31.9395 40.5234C32.0137 40.6484 32.1191 40.748 32.2559 40.8223C32.3965 40.8926 32.5605 40.9277 32.748 40.9277C33.0215 40.9277 33.2598 40.873 33.4629 40.7637C33.666 40.6504 33.8242 40.5137 33.9375 40.3535C34.0508 40.1934 34.1113 40.041 34.1191 39.8965L34.5645 40.5645C34.5098 40.7246 34.4277 40.8945 34.3184 41.0742C34.209 41.2539 34.0684 41.4219 33.8965 41.5781C33.7246 41.7344 33.5176 41.8633 33.2754 41.9648C33.0332 42.0664 32.752 42.1172 32.4316 42.1172C32.0215 42.1172 31.6543 42.0352 31.3301 41.8711C31.0059 41.707 30.75 41.4824 30.5625 41.1973C30.375 40.9121 30.2812 40.5879 30.2812 40.2246C30.2812 39.8887 30.3438 39.5918 30.4688 39.334C30.5938 39.0762 30.7793 38.8594 31.0254 38.6836C31.2715 38.5039 31.5762 38.3691 31.9395 38.2793C32.3066 38.1855 32.7266 38.1387 33.1992 38.1387H34.2422ZM37.0547 35.6602H38.6133V42.4688C38.6133 42.918 38.5312 43.2988 38.3672 43.6113C38.207 43.9238 37.9746 44.1602 37.6699 44.3203C37.3652 44.4805 36.9922 44.5605 36.5508 44.5605C36.4141 44.5605 36.2773 44.5527 36.1406 44.5371C36.0039 44.5215 35.8691 44.4961 35.7363 44.4609L35.7422 43.2656C35.8281 43.2812 35.916 43.293 36.0059 43.3008C36.0957 43.3125 36.1855 43.3184 36.2754 43.3184C36.4434 43.3184 36.584 43.2891 36.6973 43.2305C36.8145 43.1719 36.9023 43.0801 36.9609 42.9551C37.0234 42.8301 37.0547 42.668 37.0547 42.4688V35.6602ZM36.9258 34.002C36.9258 33.7715 37.0039 33.5801 37.1602 33.4277C37.3203 33.2754 37.5352 33.1992 37.8047 33.1992C38.0742 33.1992 38.2871 33.2754 38.4434 33.4277C38.6035 33.5801 38.6836 33.7715 38.6836 34.002C38.6836 34.2285 38.6035 34.418 38.4434 34.5703C38.2871 34.7227 38.0742 34.7988 37.8047 34.7988C37.5352 34.7988 37.3203 34.7227 37.1602 34.5703C37.0039 34.418 36.9258 34.2285 36.9258 34.002ZM42.8965 42.1172C42.416 42.1172 41.9844 42.0391 41.6016 41.8828C41.2188 41.7266 40.8926 41.5098 40.623 41.2324C40.3574 40.9512 40.1523 40.625 40.0078 40.2539C39.8672 39.8789 39.7969 39.4766 39.7969 39.0469V38.8125C39.7969 38.3242 39.8672 37.8809 40.0078 37.4824C40.1484 37.0801 40.3477 36.7344 40.6055 36.4453C40.8633 36.1562 41.1719 35.9336 41.5312 35.7773C41.8906 35.6211 42.2871 35.543 42.7207 35.543C43.1699 35.543 43.5664 35.6191 43.9102 35.7715C44.2539 35.9199 44.541 36.1309 44.7715 36.4043C45.002 36.6777 45.1758 37.0059 45.293 37.3887C45.4102 37.7676 45.4688 38.1875 45.4688 38.6484V39.2988H40.5V38.2324H43.9453V38.1152C43.9375 37.8691 43.8906 37.6445 43.8047 37.4414C43.7188 37.2344 43.5859 37.0703 43.4062 36.9492C43.2266 36.8242 42.9941 36.7617 42.709 36.7617C42.4785 36.7617 42.2773 36.8125 42.1055 36.9141C41.9375 37.0117 41.7969 37.1523 41.6836 37.3359C41.5742 37.5156 41.4922 37.7305 41.4375 37.9805C41.3828 38.2305 41.3555 38.5078 41.3555 38.8125V39.0469C41.3555 39.3125 41.3906 39.5586 41.4609 39.7852C41.5352 40.0117 41.6426 40.209 41.7832 40.377C41.9277 40.541 42.0996 40.6699 42.2988 40.7637C42.502 40.8535 42.7324 40.8984 42.9902 40.8984C43.3145 40.8984 43.6074 40.8359 43.8691 40.7109C44.1348 40.582 44.3652 40.3926 44.5605 40.1426L45.3398 40.9512C45.207 41.1465 45.0273 41.334 44.8008 41.5137C44.5781 41.6934 44.3086 41.8398 43.9922 41.9531C43.6758 42.0625 43.3105 42.1172 42.8965 42.1172ZM49.9922 40.2656C49.9922 40.1328 49.957 40.0137 49.8867 39.9082C49.8164 39.8027 49.6836 39.707 49.4883 39.6211C49.2969 39.5312 49.0156 39.4473 48.6445 39.3691C48.3164 39.2988 48.0137 39.2109 47.7363 39.1055C47.459 39 47.2207 38.873 47.0215 38.7246C46.8223 38.5723 46.666 38.3945 46.5527 38.1914C46.4434 37.9844 46.3887 37.7461 46.3887 37.4766C46.3887 37.2148 46.4453 36.9688 46.5586 36.7383C46.6719 36.5039 46.8359 36.2988 47.0508 36.123C47.2656 35.9434 47.5273 35.8027 47.8359 35.7012C48.1445 35.5957 48.4922 35.543 48.8789 35.543C49.418 35.543 49.8809 35.6309 50.2676 35.8066C50.6582 35.9824 50.957 36.2246 51.1641 36.5332C51.3711 36.8379 51.4746 37.1816 51.4746 37.5645H49.9277C49.9277 37.3965 49.8887 37.2441 49.8105 37.1074C49.7363 36.9707 49.6211 36.8613 49.4648 36.7793C49.3086 36.6934 49.1113 36.6504 48.873 36.6504C48.6582 36.6504 48.4766 36.6855 48.3281 36.7559C48.1836 36.8262 48.0742 36.918 48 37.0312C47.9258 37.1445 47.8887 37.2695 47.8887 37.4062C47.8887 37.5078 47.9082 37.5996 47.9473 37.6816C47.9902 37.7598 48.0586 37.832 48.1523 37.8984C48.2461 37.9648 48.373 38.0254 48.5332 38.0801C48.6973 38.1348 48.8984 38.1875 49.1367 38.2383C49.6094 38.332 50.0215 38.457 50.373 38.6133C50.7285 38.7656 51.0059 38.9688 51.2051 39.2227C51.4043 39.4766 51.5039 39.8008 51.5039 40.1953C51.5039 40.4766 51.4434 40.7344 51.3223 40.9688C51.2012 41.1992 51.0254 41.4004 50.7949 41.5723C50.5645 41.7441 50.2891 41.8789 49.9688 41.9766C49.6484 42.0703 49.2871 42.1172 48.8848 42.1172C48.3027 42.1172 47.8105 42.0137 47.4082 41.8066C47.0059 41.5957 46.7012 41.3301 46.4941 41.0098C46.2871 40.6855 46.1836 40.3496 46.1836 40.002H47.666C47.6777 40.248 47.7441 40.4453 47.8652 40.5938C47.9863 40.7422 48.1387 40.8496 48.3223 40.916C48.5098 40.9785 48.707 41.0098 48.9141 41.0098C49.1484 41.0098 49.3457 40.9785 49.5059 40.916C49.666 40.8496 49.7871 40.7617 49.8691 40.6523C49.9512 40.5391 49.9922 40.4102 49.9922 40.2656Z" fill="#090909"/>
</svg>
