<svg width="31" height="52" viewBox="0 0 31 52" fill="none" xmlns="http://www.w3.org/2000/svg">
<mask id="mask0_78_554" style="mask-type:alpha" maskUnits="userSpaceOnUse" x="3" y="0" width="25" height="24">
<rect x="3.5" width="24" height="24" fill="#D9D9D9"/>
</mask>
<g mask="url(#mask0_78_554)">
<path d="M15.5 21L8.5 17.2V11.2L4.5 9L15.5 3L26.5 9V17H24.5V10.1L22.5 11.2V17.2L15.5 21ZM15.5 12.7L22.35 9L15.5 5.3L8.65 9L15.5 12.7ZM15.5 18.725L20.5 16.025V12.25L15.5 15L10.5 12.25V16.025L15.5 18.725Z" fill="#1C1B1F"/>
</g>
<path d="M7.16992 33.4688V42H5.55273L1.92578 36.082V42H0.314453V33.4688H1.92578L5.56445 39.3926V33.4688H7.16992ZM8.41797 38.8945V38.7715C8.41797 38.3066 8.48438 37.8789 8.61719 37.4883C8.75 37.0938 8.94336 36.752 9.19727 36.4629C9.45117 36.1738 9.76172 35.9492 10.1289 35.7891C10.4961 35.625 10.9141 35.543 11.3828 35.543C11.8594 35.543 12.2812 35.625 12.6484 35.7891C13.0195 35.9492 13.332 36.1738 13.5859 36.4629C13.8398 36.752 14.0332 37.0938 14.166 37.4883C14.2988 37.8789 14.3652 38.3066 14.3652 38.7715V38.8945C14.3652 39.3555 14.2988 39.7832 14.166 40.1777C14.0332 40.5684 13.8398 40.9102 13.5859 41.2031C13.332 41.4922 13.0215 41.7168 12.6543 41.877C12.2871 42.0371 11.8672 42.1172 11.3945 42.1172C10.9258 42.1172 10.5059 42.0371 10.1348 41.877C9.76367 41.7168 9.45117 41.4922 9.19727 41.2031C8.94336 40.9102 8.75 40.5684 8.61719 40.1777C8.48438 39.7832 8.41797 39.3555 8.41797 38.8945ZM9.96484 38.7715V38.8945C9.96484 39.1719 9.99219 39.4316 10.0469 39.6738C10.1016 39.916 10.1855 40.1289 10.2988 40.3125C10.4121 40.4961 10.5586 40.6406 10.7383 40.7461C10.9219 40.8477 11.1406 40.8984 11.3945 40.8984C11.6445 40.8984 11.8594 40.8477 12.0391 40.7461C12.2188 40.6406 12.3652 40.4961 12.4785 40.3125C12.5957 40.1289 12.6816 39.916 12.7363 39.6738C12.791 39.4316 12.8184 39.1719 12.8184 38.8945V38.7715C12.8184 38.498 12.791 38.2422 12.7363 38.0039C12.6816 37.7617 12.5957 37.5488 12.4785 37.3652C12.3652 37.1777 12.2168 37.0312 12.0332 36.9258C11.8535 36.8164 11.6367 36.7617 11.3828 36.7617C11.1328 36.7617 10.918 36.8164 10.7383 36.9258C10.5586 37.0312 10.4121 37.1777 10.2988 37.3652C10.1855 37.5488 10.1016 37.7617 10.0469 38.0039C9.99219 38.2422 9.96484 38.498 9.96484 38.7715ZM18.4902 35.6602V36.7734H14.8574V35.6602H18.4902ZM15.8301 34.1016H17.3828V40.1719C17.3828 40.3594 17.4082 40.5039 17.459 40.6055C17.5098 40.707 17.5859 40.7754 17.6875 40.8105C17.7891 40.8457 17.9102 40.8633 18.0508 40.8633C18.1523 40.8633 18.2461 40.8574 18.332 40.8457C18.418 40.834 18.4902 40.8223 18.5488 40.8105L18.5547 41.9707C18.4258 42.0137 18.2793 42.0488 18.1152 42.0762C17.9551 42.1035 17.7734 42.1172 17.5703 42.1172C17.2227 42.1172 16.918 42.0586 16.6562 41.9414C16.3945 41.8203 16.1914 41.627 16.0469 41.3613C15.9023 41.0918 15.8301 40.7363 15.8301 40.2949V34.1016ZM23.0137 40.6523V37.7285C23.0137 37.5137 22.9766 37.3281 22.9023 37.1719C22.8281 37.0156 22.7148 36.8945 22.5625 36.8086C22.4102 36.7227 22.2168 36.6797 21.9824 36.6797C21.7754 36.6797 21.5938 36.7148 21.4375 36.7852C21.2852 36.8555 21.168 36.9551 21.0859 37.084C21.0039 37.209 20.9629 37.3535 20.9629 37.5176H19.4102C19.4102 37.2559 19.4727 37.0078 19.5977 36.7734C19.7227 36.5352 19.9004 36.3242 20.1309 36.1406C20.3652 35.9531 20.6445 35.8066 20.9688 35.7012C21.2969 35.5957 21.6641 35.543 22.0703 35.543C22.5508 35.543 22.9785 35.625 23.3535 35.7891C23.7324 35.9492 24.0293 36.1914 24.2441 36.5156C24.4629 36.8398 24.5723 37.248 24.5723 37.7402V40.5059C24.5723 40.8223 24.5918 41.0938 24.6309 41.3203C24.6738 41.543 24.7363 41.7363 24.8184 41.9004V42H23.2422C23.168 41.8398 23.1113 41.6367 23.0723 41.3906C23.0332 41.1406 23.0137 40.8945 23.0137 40.6523ZM23.2305 38.1387L23.2422 39.0586H22.2637C22.0215 39.0586 21.8086 39.084 21.625 39.1348C21.4414 39.1816 21.291 39.252 21.1738 39.3457C21.0566 39.4355 20.9688 39.5449 20.9102 39.6738C20.8516 39.7988 20.8223 39.9414 20.8223 40.1016C20.8223 40.2578 20.8574 40.3984 20.9277 40.5234C21.002 40.6484 21.1074 40.748 21.2441 40.8223C21.3848 40.8926 21.5488 40.9277 21.7363 40.9277C22.0098 40.9277 22.248 40.873 22.4512 40.7637C22.6543 40.6504 22.8125 40.5137 22.9258 40.3535C23.0391 40.1934 23.0996 40.041 23.1074 39.8965L23.5527 40.5645C23.498 40.7246 23.416 40.8945 23.3066 41.0742C23.1973 41.2539 23.0566 41.4219 22.8848 41.5781C22.7129 41.7344 22.5059 41.8633 22.2637 41.9648C22.0215 42.0664 21.7402 42.1172 21.4199 42.1172C21.0098 42.1172 20.6426 42.0352 20.3184 41.8711C19.9941 41.707 19.7383 41.4824 19.5508 41.1973C19.3633 40.9121 19.2695 40.5879 19.2695 40.2246C19.2695 39.8887 19.332 39.5918 19.457 39.334C19.582 39.0762 19.7676 38.8594 20.0137 38.6836C20.2598 38.5039 20.5645 38.3691 20.9277 38.2793C21.2949 38.1855 21.7148 38.1387 22.1875 38.1387H23.2305ZM29.4531 40.2656C29.4531 40.1328 29.418 40.0137 29.3477 39.9082C29.2773 39.8027 29.1445 39.707 28.9492 39.6211C28.7578 39.5312 28.4766 39.4473 28.1055 39.3691C27.7773 39.2988 27.4746 39.2109 27.1973 39.1055C26.9199 39 26.6816 38.873 26.4824 38.7246C26.2832 38.5723 26.127 38.3945 26.0137 38.1914C25.9043 37.9844 25.8496 37.7461 25.8496 37.4766C25.8496 37.2148 25.9062 36.9688 26.0195 36.7383C26.1328 36.5039 26.2969 36.2988 26.5117 36.123C26.7266 35.9434 26.9883 35.8027 27.2969 35.7012C27.6055 35.5957 27.9531 35.543 28.3398 35.543C28.8789 35.543 29.3418 35.6309 29.7285 35.8066C30.1191 35.9824 30.418 36.2246 30.625 36.5332C30.832 36.8379 30.9355 37.1816 30.9355 37.5645H29.3887C29.3887 37.3965 29.3496 37.2441 29.2715 37.1074C29.1973 36.9707 29.082 36.8613 28.9258 36.7793C28.7695 36.6934 28.5723 36.6504 28.334 36.6504C28.1191 36.6504 27.9375 36.6855 27.7891 36.7559C27.6445 36.8262 27.5352 36.918 27.4609 37.0312C27.3867 37.1445 27.3496 37.2695 27.3496 37.4062C27.3496 37.5078 27.3691 37.5996 27.4082 37.6816C27.4512 37.7598 27.5195 37.832 27.6133 37.8984C27.707 37.9648 27.834 38.0254 27.9941 38.0801C28.1582 38.1348 28.3594 38.1875 28.5977 38.2383C29.0703 38.332 29.4824 38.457 29.834 38.6133C30.1895 38.7656 30.4668 38.9688 30.666 39.2227C30.8652 39.4766 30.9648 39.8008 30.9648 40.1953C30.9648 40.4766 30.9043 40.7344 30.7832 40.9688C30.6621 41.1992 30.4863 41.4004 30.2559 41.5723C30.0254 41.7441 29.75 41.8789 29.4297 41.9766C29.1094 42.0703 28.748 42.1172 28.3457 42.1172C27.7637 42.1172 27.2715 42.0137 26.8691 41.8066C26.4668 41.5957 26.1621 41.3301 25.9551 41.0098C25.748 40.6855 25.6445 40.3496 25.6445 40.002H27.127C27.1387 40.248 27.2051 40.4453 27.3262 40.5938C27.4473 40.7422 27.5996 40.8496 27.7832 40.916C27.9707 40.9785 28.168 41.0098 28.375 41.0098C28.6094 41.0098 28.8066 40.9785 28.9668 40.916C29.127 40.8496 29.248 40.7617 29.3301 40.6523C29.4121 40.5391 29.4531 40.4102 29.4531 40.2656Z" fill="#090909"/>
</svg>
