<svg width="54" height="54" viewBox="0 0 54 54" fill="none" xmlns="http://www.w3.org/2000/svg">
<circle cx="27" cy="27" r="27" fill="#D9D9D9"/>
<path d="M40.2975 37.7109C38.5837 34.4211 35.9076 31.8577 32.7 30.4334C34.2951 29.1249 35.4734 27.3007 36.0679 25.2191C36.6624 23.1374 36.643 20.904 36.0125 18.8351C35.382 16.7662 34.1723 14.9667 32.5547 13.6916C30.9372 12.4165 28.9939 11.7303 27 11.7303C25.0061 11.7303 23.0628 12.4165 21.4452 13.6916C19.8277 14.9667 18.618 16.7662 17.9875 18.8351C17.357 20.904 17.3376 23.1374 17.9321 25.2191C18.5266 27.3007 19.7049 29.1249 21.3 30.4334C18.0924 31.8577 15.4163 34.4211 13.7025 37.7109C13.5963 37.8977 13.5255 38.1059 13.4944 38.3232C13.4632 38.5405 13.4723 38.7624 13.5211 38.9757C13.57 39.1891 13.6575 39.3895 13.7786 39.5651C13.8996 39.7407 14.0518 39.8879 14.2259 39.998C14.4 40.108 14.5925 40.1786 14.7921 40.2056C14.9917 40.2326 15.1941 40.2154 15.3875 40.1551C15.5809 40.0948 15.7612 39.9926 15.9178 39.8546C16.0743 39.7165 16.2039 39.5455 16.2987 39.3516C18.5637 35.0695 22.5637 32.5156 27 32.5156C31.4362 32.5156 35.4362 35.0709 37.7012 39.3516C37.9069 39.7132 38.2331 39.9733 38.6108 40.0767C38.9885 40.1801 39.3882 40.1188 39.7254 39.9057C40.0626 39.6927 40.3108 39.3445 40.4175 38.935C40.5243 38.5254 40.4812 38.0864 40.2975 37.7109ZM20.5 22.125C20.5 20.7189 20.8812 19.3444 21.5954 18.1753C22.3097 17.0061 23.3248 16.0949 24.5126 15.5568C25.7003 15.0187 27.0072 14.8779 28.2681 15.1522C29.529 15.4266 30.6871 16.1037 31.5962 17.0979C32.5052 18.0922 33.1243 19.359 33.3751 20.738C33.6259 22.1171 33.4972 23.5466 33.0052 24.8457C32.5132 26.1447 31.6801 27.2551 30.6112 28.0362C29.5423 28.8174 28.2856 29.2344 27 29.2344C25.2767 29.2322 23.6245 28.4825 22.406 27.1497C21.1874 25.8169 20.502 24.0099 20.5 22.125Z" fill="black"/>
</svg>
