<svg width="48" height="52" viewBox="0 0 48 52" fill="none" xmlns="http://www.w3.org/2000/svg">
<path d="M24 12C22.9 12 21.9583 11.6083 21.175 10.825C20.3917 10.0417 20 9.1 20 8C20 6.9 20.3917 5.95833 21.175 5.175C21.9583 4.39167 22.9 4 24 4C25.1 4 26.0417 4.39167 26.825 5.175C27.6083 5.95833 28 6.9 28 8C28 9.1 27.6083 10.0417 26.825 10.825C26.0417 11.6083 25.1 12 24 12ZM16 20V17.2C16 16.6333 16.1458 16.1125 16.4375 15.6375C16.7292 15.1625 17.1167 14.8 17.6 14.55C18.6333 14.0333 19.6833 13.6458 20.75 13.3875C21.8167 13.1292 22.9 13 24 13C25.1 13 26.1833 13.1292 27.25 13.3875C28.3167 13.6458 29.3667 14.0333 30.4 14.55C30.8833 14.8 31.2708 15.1625 31.5625 15.6375C31.8542 16.1125 32 16.6333 32 17.2V20H16ZM18 18H30V17.2C30 17.0167 29.9542 16.85 29.8625 16.7C29.7708 16.55 29.65 16.4333 29.5 16.35C28.6 15.9 27.6917 15.5625 26.775 15.3375C25.8583 15.1125 24.9333 15 24 15C23.0667 15 22.1417 15.1125 21.225 15.3375C20.3083 15.5625 19.4 15.9 18.5 16.35C18.35 16.4333 18.2292 16.55 18.1375 16.7C18.0458 16.85 18 17.0167 18 17.2V18ZM24 10C24.55 10 25.0208 9.80417 25.4125 9.4125C25.8042 9.02083 26 8.55 26 8C26 7.45 25.8042 6.97917 25.4125 6.5875C25.0208 6.19583 24.55 6 24 6C23.45 6 22.9792 6.19583 22.5875 6.5875C22.1958 6.97917 22 7.45 22 8C22 8.55 22.1958 9.02083 22.5875 9.4125C22.9792 9.80417 23.45 10 24 10Z" fill="#1D1B20"/>
<path d="M13.5957 38.8887H11.3984V37.623H13.5957C13.9551 37.623 14.2461 37.5645 14.4688 37.4473C14.6953 37.3262 14.8613 37.1621 14.9668 36.9551C15.0723 36.7441 15.125 36.5039 15.125 36.2344C15.125 35.9727 15.0723 35.7285 14.9668 35.502C14.8613 35.2754 14.6953 35.0918 14.4688 34.9512C14.2461 34.8105 13.9551 34.7402 13.5957 34.7402H11.9258V42H10.3145V33.4688H13.5957C14.2598 33.4688 14.8262 33.5879 15.2949 33.8262C15.7676 34.0605 16.127 34.3867 16.373 34.8047C16.623 35.2188 16.748 35.6914 16.748 36.2227C16.748 36.7734 16.623 37.248 16.373 37.6465C16.127 38.0449 15.7676 38.3516 15.2949 38.5664C14.8262 38.7812 14.2598 38.8887 13.5957 38.8887ZM20.6621 42.1172C20.1816 42.1172 19.75 42.0391 19.3672 41.8828C18.9844 41.7266 18.6582 41.5098 18.3887 41.2324C18.123 40.9512 17.918 40.625 17.7734 40.2539C17.6328 39.8789 17.5625 39.4766 17.5625 39.0469V38.8125C17.5625 38.3242 17.6328 37.8809 17.7734 37.4824C17.9141 37.0801 18.1133 36.7344 18.3711 36.4453C18.6289 36.1562 18.9375 35.9336 19.2969 35.7773C19.6562 35.6211 20.0527 35.543 20.4863 35.543C20.9355 35.543 21.332 35.6191 21.6758 35.7715C22.0195 35.9199 22.3066 36.1309 22.5371 36.4043C22.7676 36.6777 22.9414 37.0059 23.0586 37.3887C23.1758 37.7676 23.2344 38.1875 23.2344 38.6484V39.2988H18.2656V38.2324H21.7109V38.1152C21.7031 37.8691 21.6562 37.6445 21.5703 37.4414C21.4844 37.2344 21.3516 37.0703 21.1719 36.9492C20.9922 36.8242 20.7598 36.7617 20.4746 36.7617C20.2441 36.7617 20.043 36.8125 19.8711 36.9141C19.7031 37.0117 19.5625 37.1523 19.4492 37.3359C19.3398 37.5156 19.2578 37.7305 19.2031 37.9805C19.1484 38.2305 19.1211 38.5078 19.1211 38.8125V39.0469C19.1211 39.3125 19.1562 39.5586 19.2266 39.7852C19.3008 40.0117 19.4082 40.209 19.5488 40.377C19.6934 40.541 19.8652 40.6699 20.0645 40.7637C20.2676 40.8535 20.498 40.8984 20.7559 40.8984C21.0801 40.8984 21.373 40.8359 21.6348 40.7109C21.9004 40.582 22.1309 40.3926 22.3262 40.1426L23.1055 40.9512C22.9727 41.1465 22.793 41.334 22.5664 41.5137C22.3438 41.6934 22.0742 41.8398 21.7578 41.9531C21.4414 42.0625 21.0762 42.1172 20.6621 42.1172ZM25.8184 36.9551V42H24.2715V35.6602H25.7363L25.8184 36.9551ZM27.7461 35.6191L27.7227 37.0605C27.6367 37.0449 27.5391 37.0332 27.4297 37.0254C27.3242 37.0176 27.2246 37.0137 27.1309 37.0137C26.8926 37.0137 26.6836 37.0469 26.5039 37.1133C26.3242 37.1758 26.1738 37.2676 26.0527 37.3887C25.9355 37.5098 25.8457 37.6582 25.7832 37.834C25.7207 38.0059 25.6855 38.2012 25.6777 38.4199L25.3438 38.3789C25.3438 37.9766 25.3848 37.6035 25.4668 37.2598C25.5488 36.916 25.668 36.6152 25.8242 36.3574C25.9805 36.0996 26.1758 35.9004 26.4102 35.7598C26.6484 35.6152 26.9219 35.543 27.2305 35.543C27.3164 35.543 27.4082 35.5508 27.5059 35.5664C27.6074 35.5781 27.6875 35.5957 27.7461 35.6191ZM30.5527 42H28.9941V35.3086C28.9941 34.7852 29.0996 34.3438 29.3105 33.9844C29.5254 33.6211 29.832 33.3457 30.2305 33.1582C30.6328 32.9707 31.1113 32.877 31.666 32.877C31.9902 32.877 32.3027 32.9102 32.6035 32.9766C32.9082 33.0391 33.2207 33.1211 33.541 33.2227L33.3125 34.4766C33.1055 34.4102 32.8789 34.3477 32.6328 34.2891C32.3906 34.2305 32.1035 34.2012 31.7715 34.2012C31.3613 34.2012 31.0547 34.2949 30.8516 34.4824C30.6523 34.6699 30.5527 34.9453 30.5527 35.3086V42ZM31.8184 35.6602V36.7734H28.0391V35.6602H31.8184ZM34.2676 35.6602V42H32.7148V35.6602H34.2676ZM37.4082 33V42H35.8555V33H37.4082Z" fill="#090909"/>
</svg>
