<svg width="21" height="16" viewBox="0 0 21 16" fill="none" xmlns="http://www.w3.org/2000/svg">
<path d="M2.25 16C1.7 16 1.22917 15.8042 0.8375 15.4125C0.445833 15.0208 0.25 14.55 0.25 14V2C0.25 1.45 0.445833 0.979167 0.8375 0.5875C1.22917 0.195833 1.7 0 2.25 0H18.25C18.8 0 19.2708 0.195833 19.6625 0.5875C20.0542 0.979167 20.25 1.45 20.25 2V14C20.25 14.55 20.0542 15.0208 19.6625 15.4125C19.2708 15.8042 18.8 16 18.25 16H2.25ZM10.25 9L2.25 4V14H18.25V4L10.25 9ZM10.25 7L18.25 2H2.25L10.25 7ZM2.25 4V2V14V4Z" fill="white"/>
</svg>
